<svg xmlns="http://www.w3.org/2000/svg" width="470.416" height="87.261" viewBox="0 0 470.416 87.261">
  <g id="Group_3227" data-name="Group 3227" transform="translate(22207.881 -7597.954)">
    <g id="Group_3225" data-name="Group 3225" transform="translate(-22213 7594)">
      <g id="Group_1923" data-name="Group 1923" transform="translate(82.512 98.06) rotate(-108)">
        <path id="Path_34" data-name="Path 34" d="M8.638,18.194c1.537-.274,3.67-.515,5.725-1.053A5.643,5.643,0,0,0,18.751,12c.07-2.432-1.34-4.384-4.134-5.266a7.54,7.54,0,0,1-4.512-3.643C8.649.562,6.365-.448,4.091.183A5.805,5.805,0,0,0,0,5.791,40.232,40.232,0,0,0,.32,11.769c.491,3.562,4.139,6.506,8.319,6.425" transform="matrix(0.788, -0.616, 0.616, 0.788, 5.877, 11.546)" fill="#f39321"/>
        <path id="Path_35" data-name="Path 35" d="M6.59,2.258A2.353,2.353,0,0,0,3.969,0C1.94-.05-.118,1.859.005,3.724a2.523,2.523,0,0,0,2.753,2.5A4.066,4.066,0,0,0,6.59,2.258" transform="matrix(0.788, -0.616, 0.616, 0.788, 0, 22.151)" fill="#f39321"/>
        <path id="Path_36" data-name="Path 36" d="M2.323,6.679A4.025,4.025,0,0,0,6.142,2.766,2.547,2.547,0,0,0,3.642.005C1.793-.122-.081,2,0,4.036a2.467,2.467,0,0,0,2.32,2.644" transform="matrix(0.788, -0.616, 0.616, 0.788, 19.405, 28.91)" fill="#f39321"/>
        <path id="Path_37" data-name="Path 37" d="M6.137,2.423A2.4,2.4,0,0,0,3.633,0C1.865-.065.034,1.942,0,3.872A2.589,2.589,0,0,0,2.66,6.666C4.508,6.61,6.174,4.717,6.137,2.423" transform="matrix(0.788, -0.616, 0.616, 0.788, 28.281, 21.818)" fill="#f39321"/>
        <path id="Path_38" data-name="Path 38" d="M6.349,2.347A2.349,2.349,0,0,0,3.82,0,3.913,3.913,0,0,0,0,3.827,2.336,2.336,0,0,0,2.61,6.363,4.022,4.022,0,0,0,6.349,2.347" transform="matrix(0.788, -0.616, 0.616, 0.788, 8.542, 29.313)" fill="#f39321"/>
      </g>
      <g id="Group_1930" data-name="Group 1930" transform="translate(11.502 93.06) rotate(-108)">
        <path id="Path_34-2" data-name="Path 34" d="M8.638,18.194c1.537-.274,3.67-.515,5.725-1.053A5.643,5.643,0,0,0,18.751,12c.07-2.432-1.34-4.384-4.134-5.266a7.54,7.54,0,0,1-4.512-3.643C8.649.562,6.365-.448,4.091.183A5.805,5.805,0,0,0,0,5.791,40.232,40.232,0,0,0,.32,11.769c.491,3.562,4.139,6.506,8.319,6.425" transform="matrix(0.788, -0.616, 0.616, 0.788, 5.877, 11.546)" fill="#f39321"/>
        <path id="Path_35-2" data-name="Path 35" d="M6.59,2.258A2.353,2.353,0,0,0,3.969,0C1.94-.05-.118,1.859.005,3.724a2.523,2.523,0,0,0,2.753,2.5A4.066,4.066,0,0,0,6.59,2.258" transform="matrix(0.788, -0.616, 0.616, 0.788, 0, 22.151)" fill="#f39321"/>
        <path id="Path_36-2" data-name="Path 36" d="M2.323,6.679A4.025,4.025,0,0,0,6.142,2.766,2.547,2.547,0,0,0,3.642.005C1.793-.122-.081,2,0,4.036a2.467,2.467,0,0,0,2.32,2.644" transform="matrix(0.788, -0.616, 0.616, 0.788, 19.405, 28.91)" fill="#f39321"/>
        <path id="Path_37-2" data-name="Path 37" d="M6.137,2.423A2.4,2.4,0,0,0,3.633,0C1.865-.065.034,1.942,0,3.872A2.589,2.589,0,0,0,2.66,6.666C4.508,6.61,6.174,4.717,6.137,2.423" transform="matrix(0.788, -0.616, 0.616, 0.788, 28.281, 21.818)" fill="#f39321"/>
        <path id="Path_38-2" data-name="Path 38" d="M6.349,2.347A2.349,2.349,0,0,0,3.82,0,3.913,3.913,0,0,0,0,3.827,2.336,2.336,0,0,0,2.61,6.363,4.022,4.022,0,0,0,6.349,2.347" transform="matrix(0.788, -0.616, 0.616, 0.788, 8.542, 29.313)" fill="#f39321"/>
      </g>
      <g id="Group_1925" data-name="Group 1925" transform="translate(128.498 47.052) rotate(-111)">
        <path id="Path_34-3" data-name="Path 34" d="M8.638,18.194c1.537-.274,3.67-.515,5.725-1.053A5.643,5.643,0,0,0,18.751,12c.07-2.432-1.34-4.384-4.134-5.266a7.54,7.54,0,0,1-4.512-3.643C8.649.562,6.365-.448,4.091.183A5.805,5.805,0,0,0,0,5.791,40.232,40.232,0,0,0,.32,11.769c.491,3.562,4.139,6.506,8.319,6.425" transform="matrix(0.788, -0.616, 0.616, 0.788, 5.877, 11.546)" fill="#f39321"/>
        <path id="Path_35-3" data-name="Path 35" d="M6.59,2.258A2.353,2.353,0,0,0,3.969,0C1.94-.05-.118,1.859.005,3.724a2.523,2.523,0,0,0,2.753,2.5A4.066,4.066,0,0,0,6.59,2.258" transform="matrix(0.788, -0.616, 0.616, 0.788, 0, 22.151)" fill="#f39321"/>
        <path id="Path_36-3" data-name="Path 36" d="M2.323,6.679A4.025,4.025,0,0,0,6.142,2.766,2.547,2.547,0,0,0,3.642.005C1.793-.122-.081,2,0,4.036a2.467,2.467,0,0,0,2.32,2.644" transform="matrix(0.788, -0.616, 0.616, 0.788, 19.405, 28.91)" fill="#f39321"/>
        <path id="Path_37-3" data-name="Path 37" d="M6.137,2.423A2.4,2.4,0,0,0,3.633,0C1.865-.065.034,1.942,0,3.872A2.589,2.589,0,0,0,2.66,6.666C4.508,6.61,6.174,4.717,6.137,2.423" transform="matrix(0.788, -0.616, 0.616, 0.788, 28.281, 21.818)" fill="#f39321"/>
        <path id="Path_38-3" data-name="Path 38" d="M6.349,2.347A2.349,2.349,0,0,0,3.82,0,3.913,3.913,0,0,0,0,3.827,2.336,2.336,0,0,0,2.61,6.363,4.022,4.022,0,0,0,6.349,2.347" transform="matrix(0.788, -0.616, 0.616, 0.788, 8.542, 29.313)" fill="#f39321"/>
      </g>
      <g id="Group_1927" data-name="Group 1927" transform="translate(201.248 56.254) rotate(-111)" opacity="0.8">
        <path id="Path_34-4" data-name="Path 34" d="M8.638,18.194c1.537-.274,3.67-.515,5.725-1.053A5.643,5.643,0,0,0,18.751,12c.07-2.432-1.34-4.384-4.134-5.266a7.54,7.54,0,0,1-4.512-3.643C8.649.562,6.365-.448,4.091.183A5.805,5.805,0,0,0,0,5.791,40.232,40.232,0,0,0,.32,11.769c.491,3.562,4.139,6.506,8.319,6.425" transform="matrix(0.788, -0.616, 0.616, 0.788, 5.877, 11.546)" fill="#f39321"/>
        <path id="Path_35-4" data-name="Path 35" d="M6.59,2.258A2.353,2.353,0,0,0,3.969,0C1.94-.05-.118,1.859.005,3.724a2.523,2.523,0,0,0,2.753,2.5A4.066,4.066,0,0,0,6.59,2.258" transform="matrix(0.788, -0.616, 0.616, 0.788, 0, 22.151)" fill="#f39321"/>
        <path id="Path_36-4" data-name="Path 36" d="M2.323,6.679A4.025,4.025,0,0,0,6.142,2.766,2.547,2.547,0,0,0,3.642.005C1.793-.122-.081,2,0,4.036a2.467,2.467,0,0,0,2.32,2.644" transform="matrix(0.788, -0.616, 0.616, 0.788, 19.405, 28.91)" fill="#f39321"/>
        <path id="Path_37-4" data-name="Path 37" d="M6.137,2.423A2.4,2.4,0,0,0,3.633,0C1.865-.065.034,1.942,0,3.872A2.589,2.589,0,0,0,2.66,6.666C4.508,6.61,6.174,4.717,6.137,2.423" transform="matrix(0.788, -0.616, 0.616, 0.788, 28.281, 21.818)" fill="#f39321"/>
        <path id="Path_38-4" data-name="Path 38" d="M6.349,2.347A2.349,2.349,0,0,0,3.82,0,3.913,3.913,0,0,0,0,3.827,2.336,2.336,0,0,0,2.61,6.363,4.022,4.022,0,0,0,6.349,2.347" transform="matrix(0.788, -0.616, 0.616, 0.788, 8.542, 29.313)" fill="#f39321"/>
      </g>
    </g>
    <g id="Group_3226" data-name="Group 3226" transform="translate(-21966.295 7594)">
      <g id="Group_1923-2" data-name="Group 1923" transform="translate(82.512 98.06) rotate(-108)">
        <path id="Path_34-5" data-name="Path 34" d="M8.638,18.194c1.537-.274,3.67-.515,5.725-1.053A5.643,5.643,0,0,0,18.751,12c.07-2.432-1.34-4.384-4.134-5.266a7.54,7.54,0,0,1-4.512-3.643C8.649.562,6.365-.448,4.091.183A5.805,5.805,0,0,0,0,5.791,40.232,40.232,0,0,0,.32,11.769c.491,3.562,4.139,6.506,8.319,6.425" transform="matrix(0.788, -0.616, 0.616, 0.788, 5.877, 11.546)" fill="#f39321"/>
        <path id="Path_35-5" data-name="Path 35" d="M6.59,2.258A2.353,2.353,0,0,0,3.969,0C1.94-.05-.118,1.859.005,3.724a2.523,2.523,0,0,0,2.753,2.5A4.066,4.066,0,0,0,6.59,2.258" transform="matrix(0.788, -0.616, 0.616, 0.788, 0, 22.151)" fill="#f39321"/>
        <path id="Path_36-5" data-name="Path 36" d="M2.323,6.679A4.025,4.025,0,0,0,6.142,2.766,2.547,2.547,0,0,0,3.642.005C1.793-.122-.081,2,0,4.036a2.467,2.467,0,0,0,2.32,2.644" transform="matrix(0.788, -0.616, 0.616, 0.788, 19.405, 28.91)" fill="#f39321"/>
        <path id="Path_37-5" data-name="Path 37" d="M6.137,2.423A2.4,2.4,0,0,0,3.633,0C1.865-.065.034,1.942,0,3.872A2.589,2.589,0,0,0,2.66,6.666C4.508,6.61,6.174,4.717,6.137,2.423" transform="matrix(0.788, -0.616, 0.616, 0.788, 28.281, 21.818)" fill="#f39321"/>
        <path id="Path_38-5" data-name="Path 38" d="M6.349,2.347A2.349,2.349,0,0,0,3.82,0,3.913,3.913,0,0,0,0,3.827,2.336,2.336,0,0,0,2.61,6.363,4.022,4.022,0,0,0,6.349,2.347" transform="matrix(0.788, -0.616, 0.616, 0.788, 8.542, 29.313)" fill="#f39321"/>
      </g>
      <g id="Group_1930-2" data-name="Group 1930" transform="translate(11.502 93.06) rotate(-108)">
        <path id="Path_34-6" data-name="Path 34" d="M8.638,18.194c1.537-.274,3.67-.515,5.725-1.053A5.643,5.643,0,0,0,18.751,12c.07-2.432-1.34-4.384-4.134-5.266a7.54,7.54,0,0,1-4.512-3.643C8.649.562,6.365-.448,4.091.183A5.805,5.805,0,0,0,0,5.791,40.232,40.232,0,0,0,.32,11.769c.491,3.562,4.139,6.506,8.319,6.425" transform="matrix(0.788, -0.616, 0.616, 0.788, 5.877, 11.546)" fill="#f39321"/>
        <path id="Path_35-6" data-name="Path 35" d="M6.59,2.258A2.353,2.353,0,0,0,3.969,0C1.94-.05-.118,1.859.005,3.724a2.523,2.523,0,0,0,2.753,2.5A4.066,4.066,0,0,0,6.59,2.258" transform="matrix(0.788, -0.616, 0.616, 0.788, 0, 22.151)" fill="#f39321"/>
        <path id="Path_36-6" data-name="Path 36" d="M2.323,6.679A4.025,4.025,0,0,0,6.142,2.766,2.547,2.547,0,0,0,3.642.005C1.793-.122-.081,2,0,4.036a2.467,2.467,0,0,0,2.32,2.644" transform="matrix(0.788, -0.616, 0.616, 0.788, 19.405, 28.91)" fill="#f39321"/>
        <path id="Path_37-6" data-name="Path 37" d="M6.137,2.423A2.4,2.4,0,0,0,3.633,0C1.865-.065.034,1.942,0,3.872A2.589,2.589,0,0,0,2.66,6.666C4.508,6.61,6.174,4.717,6.137,2.423" transform="matrix(0.788, -0.616, 0.616, 0.788, 28.281, 21.818)" fill="#f39321"/>
        <path id="Path_38-6" data-name="Path 38" d="M6.349,2.347A2.349,2.349,0,0,0,3.82,0,3.913,3.913,0,0,0,0,3.827,2.336,2.336,0,0,0,2.61,6.363,4.022,4.022,0,0,0,6.349,2.347" transform="matrix(0.788, -0.616, 0.616, 0.788, 8.542, 29.313)" fill="#f39321"/>
      </g>
      <g id="Group_1925-2" data-name="Group 1925" transform="translate(128.498 47.052) rotate(-111)">
        <path id="Path_34-7" data-name="Path 34" d="M8.638,18.194c1.537-.274,3.67-.515,5.725-1.053A5.643,5.643,0,0,0,18.751,12c.07-2.432-1.34-4.384-4.134-5.266a7.54,7.54,0,0,1-4.512-3.643C8.649.562,6.365-.448,4.091.183A5.805,5.805,0,0,0,0,5.791,40.232,40.232,0,0,0,.32,11.769c.491,3.562,4.139,6.506,8.319,6.425" transform="matrix(0.788, -0.616, 0.616, 0.788, 5.877, 11.546)" fill="#f39321"/>
        <path id="Path_35-7" data-name="Path 35" d="M6.59,2.258A2.353,2.353,0,0,0,3.969,0C1.94-.05-.118,1.859.005,3.724a2.523,2.523,0,0,0,2.753,2.5A4.066,4.066,0,0,0,6.59,2.258" transform="matrix(0.788, -0.616, 0.616, 0.788, 0, 22.151)" fill="#f39321"/>
        <path id="Path_36-7" data-name="Path 36" d="M2.323,6.679A4.025,4.025,0,0,0,6.142,2.766,2.547,2.547,0,0,0,3.642.005C1.793-.122-.081,2,0,4.036a2.467,2.467,0,0,0,2.32,2.644" transform="matrix(0.788, -0.616, 0.616, 0.788, 19.405, 28.91)" fill="#f39321"/>
        <path id="Path_37-7" data-name="Path 37" d="M6.137,2.423A2.4,2.4,0,0,0,3.633,0C1.865-.065.034,1.942,0,3.872A2.589,2.589,0,0,0,2.66,6.666C4.508,6.61,6.174,4.717,6.137,2.423" transform="matrix(0.788, -0.616, 0.616, 0.788, 28.281, 21.818)" fill="#f39321"/>
        <path id="Path_38-7" data-name="Path 38" d="M6.349,2.347A2.349,2.349,0,0,0,3.82,0,3.913,3.913,0,0,0,0,3.827,2.336,2.336,0,0,0,2.61,6.363,4.022,4.022,0,0,0,6.349,2.347" transform="matrix(0.788, -0.616, 0.616, 0.788, 8.542, 29.313)" fill="#f39321"/>
      </g>
      <g id="Group_1927-2" data-name="Group 1927" transform="translate(201.248 56.254) rotate(-111)">
        <path id="Path_34-8" data-name="Path 34" d="M8.638,18.194c1.537-.274,3.67-.515,5.725-1.053A5.643,5.643,0,0,0,18.751,12c.07-2.432-1.34-4.384-4.134-5.266a7.54,7.54,0,0,1-4.512-3.643C8.649.562,6.365-.448,4.091.183A5.805,5.805,0,0,0,0,5.791,40.232,40.232,0,0,0,.32,11.769c.491,3.562,4.139,6.506,8.319,6.425" transform="matrix(0.788, -0.616, 0.616, 0.788, 5.877, 11.546)" fill="#f39321"/>
        <path id="Path_35-8" data-name="Path 35" d="M6.59,2.258A2.353,2.353,0,0,0,3.969,0C1.94-.05-.118,1.859.005,3.724a2.523,2.523,0,0,0,2.753,2.5A4.066,4.066,0,0,0,6.59,2.258" transform="matrix(0.788, -0.616, 0.616, 0.788, 0, 22.151)" fill="#f39321"/>
        <path id="Path_36-8" data-name="Path 36" d="M2.323,6.679A4.025,4.025,0,0,0,6.142,2.766,2.547,2.547,0,0,0,3.642.005C1.793-.122-.081,2,0,4.036a2.467,2.467,0,0,0,2.32,2.644" transform="matrix(0.788, -0.616, 0.616, 0.788, 19.405, 28.91)" fill="#f39321"/>
        <path id="Path_37-8" data-name="Path 37" d="M6.137,2.423A2.4,2.4,0,0,0,3.633,0C1.865-.065.034,1.942,0,3.872A2.589,2.589,0,0,0,2.66,6.666C4.508,6.61,6.174,4.717,6.137,2.423" transform="matrix(0.788, -0.616, 0.616, 0.788, 28.281, 21.818)" fill="#f39321"/>
        <path id="Path_38-8" data-name="Path 38" d="M6.349,2.347A2.349,2.349,0,0,0,3.82,0,3.913,3.913,0,0,0,0,3.827,2.336,2.336,0,0,0,2.61,6.363,4.022,4.022,0,0,0,6.349,2.347" transform="matrix(0.788, -0.616, 0.616, 0.788, 8.542, 29.313)" fill="#f39321"/>
      </g>
    </g>
  </g>
</svg>
