<svg xmlns="http://www.w3.org/2000/svg" width="47" height="48" viewBox="0 0 47 48">
  <g id="icon" transform="translate(-0.436 0.354)">
    <g id="Ellipse_6" data-name="Ellipse 6" transform="translate(0.436 -0.354)" fill="none" stroke="#666" stroke-width="2" opacity="0.91">
      <ellipse cx="23.5" cy="24" rx="23.5" ry="24" stroke="none"/>
      <ellipse cx="23.5" cy="24" rx="22.5" ry="23" fill="none"/>
    </g>
    <g id="Icon_feather-mail" data-name="Icon feather-mail" transform="translate(14.06 15.977)">
      <path id="Path_80" data-name="Path 80" d="M4.917,6H20.256a1.923,1.923,0,0,1,1.917,1.917v11.5a1.923,1.923,0,0,1-1.917,1.917H4.917A1.923,1.923,0,0,1,3,19.421V7.917A1.923,1.923,0,0,1,4.917,6Z" transform="translate(-3 -6)" fill="none" stroke="#666" stroke-linecap="round" stroke-linejoin="round" stroke-width="2"/>
      <path id="Path_81" data-name="Path 81" d="M22.173,9l-9.586,6.71L3,9" transform="translate(-3 -7.083)" fill="none" stroke="#666" stroke-linecap="round" stroke-linejoin="round" stroke-width="2"/>
    </g>
  </g>
</svg>
