<svg id="Group_126" data-name="Group 126" xmlns="http://www.w3.org/2000/svg" xmlns:xlink="http://www.w3.org/1999/xlink" width="746" height="281" viewBox="0 0 746 281">
  <defs>
    <clipPath id="clip-path">
      <rect id="Rectangle_128" data-name="Rectangle 128" width="746" height="281" fill="#37a8a6"/>
    </clipPath>
  </defs>
  <g id="Group_125" data-name="Group 125" clip-path="url(#clip-path)">
    <ellipse id="Ellipse_8" data-name="Ellipse 8" cx="145.261" cy="139.061" rx="145.261" ry="139.061" transform="translate(454.04 1.439)" fill="none" stroke="#37a8a6" stroke-miterlimit="10" stroke-width="3"/>
    <path id="Path_120" data-name="Path 120" d="M495.919,250.506V227.763l0,0C469.3,259.39,428.5,279.621,382.769,279.621c-80.226,0-145.261-62.26-145.261-139.061S302.543,1.5,382.769,1.5a148.628,148.628,0,0,1,92.649,31.952" transform="translate(-9.769 -0.061)" fill="none" stroke="#37a8a6" stroke-linecap="round" stroke-linejoin="round" stroke-width="3"/>
    <path id="Path_121" data-name="Path 121" d="M636.338,99.042a12.112,12.112,0,1,1-12.112-12.121,12.117,12.117,0,0,1,12.112,12.121" transform="translate(-25.177 -3.515)" fill="#37a8a6"/>
    <path id="Path_122" data-name="Path 122" d="M643.551,145.687H604.6a2.235,2.235,0,0,1-2.227-2.229v-5.347a21.7,21.7,0,1,1,43.4,0v5.347a2.235,2.235,0,0,1-2.227,2.229" transform="translate(-24.776 -4.707)" fill="#37a8a6"/>
    <path id="Path_123" data-name="Path 123" d="M576.817,184.515c.354,7.314-4.93,12.747-12.737,12.747H556.2V171.767h7.877c7.806,0,13.091,5.007,12.737,12.748m-17.845,10.261h5.109a9.753,9.753,0,0,0,9.934-10.261c.356-5.752-3.654-10.226-9.934-10.226h-5.109Z" transform="translate(-22.877 -6.946)" fill="#37a8a6"/>
    <path id="Path_124" data-name="Path 124" d="M597.458,194.264v2.38a9.894,9.894,0,0,1-5.571,1.633c-4.47,0-8.266-2.769-8.266-7.385,0-5.042,3.549-8.06,7.487-8.06,4.435,0,7.521,3.018,7.415,8.876H586.246c.389,2.592,2.376,4.261,5.641,4.261a9.242,9.242,0,0,0,5.571-1.705m-11.177-4.829h9.508a4.476,4.476,0,0,0-4.682-4.225,4.658,4.658,0,0,0-4.826,4.225" transform="translate(-24.005 -7.393)" fill="#37a8a6"/>
    <path id="Path_125" data-name="Path 125" d="M604.9,171.251l2.554-.853v26.808H604.9Z" transform="translate(-24.88 -6.891)" fill="#37a8a6"/>
    <path id="Path_126" data-name="Path 126" d="M614.591,176.764l2.982-.852v3.2l-2.982.853Zm.215,6.782,2.553-.853v14.736h-2.553Z" transform="translate(-25.279 -7.114)" fill="#37a8a6"/>
    <path id="Path_127" data-name="Path 127" d="M623.252,183.571l2.341-.888,5.216,10.83,5.215-10.83,2.342.888-7.557,14.877Z" transform="translate(-25.635 -7.387)" fill="#37a8a6"/>
    <path id="Path_128" data-name="Path 128" d="M657.29,194.264v2.38a9.888,9.888,0,0,1-5.569,1.633c-4.47,0-8.266-2.769-8.266-7.385,0-5.042,3.546-8.06,7.484-8.06,4.435,0,7.521,3.018,7.417,8.876H646.08c.389,2.592,2.377,4.261,5.641,4.261a9.24,9.24,0,0,0,5.569-1.705m-11.176-4.829h9.509a4.477,4.477,0,0,0-4.684-4.225,4.66,4.66,0,0,0-4.825,4.225" transform="translate(-26.466 -7.393)" fill="#37a8a6"/>
    <path id="Path_129" data-name="Path 129" d="M672.925,183.088v2.663c-2.27,0-5.641,1.065-5.641,3.587v8.379H664.73V183.868l2.554-.851v3.2a7.434,7.434,0,0,1,5.641-3.124" transform="translate(-27.341 -7.401)" fill="#37a8a6"/>
    <path id="Path_130" data-name="Path 130" d="M681.1,204.13l3.62-7.492-6.635-13.1,2.094-.852,5.89,11.15,5.356-11.15,2.449.852-10.431,21.446Z" transform="translate(-27.89 -7.387)" fill="#37a8a6"/>
    <path id="Path_131" data-name="Path 131" d="M97.525,187.529a13.27,13.27,0,1,1,13.27,13.279,13.3,13.3,0,0,1-13.27-13.279m23.7,0a10.435,10.435,0,1,0-10.432,10.723,10.606,10.606,0,0,0,10.432-10.723" transform="translate(-4.011 -7.046)" fill="#37a8a6"/>
    <path id="Path_132" data-name="Path 132" d="M140.429,186.088v2.663c-2.271,0-5.642,1.065-5.642,3.587v8.379h-2.554V186.868l2.554-.851v3.2a7.435,7.435,0,0,1,5.642-3.124" transform="translate(-5.439 -7.522)" fill="#37a8a6"/>
    <path id="Path_133" data-name="Path 133" d="M158.471,174.252l2.554-.853v26.808h-2.554v-2.7a6.5,6.5,0,0,1-5.535,3.231c-4.649,0-7.345-3.3-7.345-7.527,0-4.261,2.732-7.917,7.557-7.917a6.135,6.135,0,0,1,5.323,3.266Zm0,18.783a5.132,5.132,0,1,0-5.144,5.361,5.084,5.084,0,0,0,5.144-5.361" transform="translate(-5.988 -7.012)" fill="#37a8a6"/>
    <path id="Path_134" data-name="Path 134" d="M181.445,197.264v2.38a9.891,9.891,0,0,1-5.57,1.633c-4.47,0-8.266-2.769-8.266-7.385,0-5.042,3.548-8.06,7.486-8.06,4.435,0,7.521,3.018,7.416,8.876H170.234c.389,2.592,2.376,4.261,5.641,4.261a9.241,9.241,0,0,0,5.57-1.705m-11.177-4.829h9.509a4.477,4.477,0,0,0-4.683-4.225,4.659,4.659,0,0,0-4.826,4.225" transform="translate(-6.894 -7.515)" fill="#37a8a6"/>
    <path id="Path_135" data-name="Path 135" d="M197.08,186.088v2.663c-2.271,0-5.642,1.065-5.642,3.587v8.379h-2.554V186.868l2.554-.851v3.2a7.435,7.435,0,0,1,5.642-3.124" transform="translate(-7.769 -7.522)" fill="#37a8a6"/>
    <path id="Path_136" data-name="Path 136" d="M165.486,128.621H132.834a9.033,9.033,0,0,1-8.785-7.107L116.7,87.18a.352.352,0,0,0-.343-.278h-6.7a1.49,1.49,0,0,1,0-2.98h6.7a3.347,3.347,0,0,1,3.255,2.634l7.353,34.335a6.037,6.037,0,0,0,5.873,4.751h32.652a1.49,1.49,0,0,1,0,2.98" transform="translate(-4.449 -3.394)" fill="#37a8a6"/>
    <path id="Path_137" data-name="Path 137" d="M139.1,139.959A5.956,5.956,0,1,1,133.14,134a5.958,5.958,0,0,1,5.956,5.96" transform="translate(-5.231 -5.419)" fill="#37a8a6"/>
    <path id="Path_138" data-name="Path 138" d="M167.822,139.959a5.956,5.956,0,1,1-5.956-5.96,5.958,5.958,0,0,1,5.956,5.96" transform="translate(-6.413 -5.419)" fill="#37a8a6"/>
    <path id="Path_139" data-name="Path 139" d="M170.591,93.013H125.261a1.589,1.589,0,0,0-1.552,1.922l5.482,25.6a1.586,1.586,0,0,0,1.73,1.245l37.3-4.2a1.589,1.589,0,0,0,1.4-1.391l2.546-21.4a1.589,1.589,0,0,0-1.576-1.777m-31.86,22.479a1.076,1.076,0,0,1-.233.025,1.116,1.116,0,0,1-1.09-.886l-2.726-12.837a1.116,1.116,0,1,1,2.184-.463l2.725,12.836a1.115,1.115,0,0,1-.86,1.325m7-.66-.065,0a1.117,1.117,0,0,1-1.113-1.054l-.729-12.666a1.116,1.116,0,1,1,2.228-.129l.729,12.666a1.117,1.117,0,0,1-1.05,1.18m8.338-1.776a1.117,1.117,0,0,1-1.11,1.022c-.033,0-.065,0-.1,0a1.118,1.118,0,0,1-1.016-1.21l1.027-11.9a1.116,1.116,0,1,1,2.225.192Zm9.826-12.072-2.275,12.458a1.117,1.117,0,1,1-2.2-.4l2.275-12.459a1.117,1.117,0,1,1,2.2.4" transform="translate(-5.087 -3.761)" fill="#37a8a6"/>
    <path id="Path_140" data-name="Path 140" d="M317.189,187.883c3.229,1.137,8.3,2.77,8.3,7.457,0,4.864-3.05,7.421-9.332,7.421a12.156,12.156,0,0,1-8.089-2.806v-3.124c1.6,1.386,5.394,3.3,8.089,3.3,4.612,0,6.388-1.989,6.388-4.794,0-2.734-3.621-3.871-6.742-4.935-2.875-.994-7.664-2.806-7.664-7.137,0-5.078,4.116-6.923,8.124-6.923,3.692,0,6.068,1.278,7.238,2.449v3.019a9.909,9.909,0,0,0-7.238-2.8c-3.3,0-5.18,1.243-5.18,4.26,0,2.485,3.228,3.587,6.1,4.615" transform="translate(-12.671 -7.131)" fill="#37a8a6"/>
    <path id="Path_141" data-name="Path 141" d="M340.633,187.46a5.635,5.635,0,0,1,5.714,5.681v9.2l-2.554-.036V193.5c0-2.13-1.562-3.834-4.187-3.834a4.049,4.049,0,0,0-4.152,3.834v8.841H332.9V176.382l2.554-.853v14.7a6.2,6.2,0,0,1,5.18-2.769" transform="translate(-13.692 -7.098)" fill="#37a8a6"/>
    <path id="Path_142" data-name="Path 142" d="M353.953,181.9l2.98-.852v3.2l-2.98.853Zm.214,6.782,2.554-.853V202.56h-2.554Z" transform="translate(-14.558 -7.321)" fill="#37a8a6"/>
    <path id="Path_143" data-name="Path 143" d="M366.646,191.044a6.134,6.134,0,0,1,5.322-3.266c4.825,0,7.557,3.657,7.557,7.918,0,4.225-2.7,7.527-7.345,7.527a6.5,6.5,0,0,1-5.534-3.231v9.764h-2.554V188.7l2.554-.852Zm10.253,4.473a5.132,5.132,0,1,0-5.109,5.362,5.076,5.076,0,0,0,5.109-5.362" transform="translate(-14.976 -7.593)" fill="#37a8a6"/>
    <path id="Path_144" data-name="Path 144" d="M388.662,191.044a6.136,6.136,0,0,1,5.322-3.266c4.827,0,7.559,3.657,7.559,7.918,0,4.225-2.7,7.527-7.345,7.527a6.5,6.5,0,0,1-5.536-3.231v9.764h-2.554V188.7l2.554-.852Zm10.255,4.473a5.133,5.133,0,1,0-5.109,5.362,5.077,5.077,0,0,0,5.109-5.362" transform="translate(-15.881 -7.593)" fill="#37a8a6"/>
    <path id="Path_145" data-name="Path 145" d="M408.125,181.9l2.98-.852v3.2l-2.98.853Zm.214,6.782,2.554-.853V202.56h-2.554Z" transform="translate(-16.787 -7.321)" fill="#37a8a6"/>
    <path id="Path_146" data-name="Path 146" d="M426,187.963a5.633,5.633,0,0,1,5.712,5.681v9.2h-2.554V194c0-2.13-1.56-3.834-4.185-3.834A4.049,4.049,0,0,0,420.818,194v8.841h-2.554V188.957l2.554-.853v2.628a6.2,6.2,0,0,1,5.18-2.769" transform="translate(-17.204 -7.601)" fill="#37a8a6"/>
    <path id="Path_147" data-name="Path 147" d="M450.9,188.993l2.554-.852v14.7c0,4.261-3.087,6.923-7.734,6.923a10.16,10.16,0,0,1-6.423-2.272v-2.7a9.63,9.63,0,0,0,6.423,2.627c1.916,0,5.18-.32,5.18-4.581v-2.663a6.5,6.5,0,0,1-5.534,3.231c-4.649,0-7.346-3.3-7.346-7.527,0-4.261,2.733-7.917,7.557-7.917a6.135,6.135,0,0,1,5.323,3.266Zm0,6.711a5.132,5.132,0,1,0-5.144,5.361A5.084,5.084,0,0,0,450.9,195.7" transform="translate(-18.016 -7.601)" fill="#37a8a6"/>
    <path id="Path_148" data-name="Path 148" d="M368.439,109.435l-29.12-10.807a.86.86,0,0,0-1.158.807v35.25a.86.86,0,0,0,.561.807L367.841,146.3a.86.86,0,0,0,1.159-.807v-35.25a.86.86,0,0,0-.561-.807M356.561,137.6a.464.464,0,0,1-.628.434l-7.884-2.994a.465.465,0,0,1-.3-.434v-2.9a.463.463,0,0,1,.628-.434l7.884,2.994a.463.463,0,0,1,.3.434Z" transform="translate(-13.909 -3.986)" fill="#37a8a6"/>
    <path id="Path_149" data-name="Path 149" d="M401.871,93.127,371.229,81.819a.455.455,0,0,0-.318,0l-30.645,11.4a.457.457,0,0,0,0,.858l30.539,11.371a.457.457,0,0,0,.319,0l13.921-5.191L377.028,97.2a.236.236,0,0,1-.006-.438l5.5-2.275a.231.231,0,0,1,.17,0l8.976,3.309,10.207-3.807a.458.458,0,0,0,0-.858" transform="translate(-13.983 -3.307)" fill="#37a8a6"/>
    <path id="Path_150" data-name="Path 150" d="M395.359,124.692a14.966,14.966,0,0,1,10.7-7.756v-17.5a.861.861,0,0,0-1.159-.807l-9.725,3.61v10.213a.347.347,0,0,1-.215.321l-5.705,2.361a.347.347,0,0,1-.479-.32v-10.2l-12.995,4.823a.86.86,0,0,0-.561.807v35.25a.86.86,0,0,0,1.159.807l18.879-7.007a15.447,15.447,0,0,1,.1-14.6" transform="translate(-15.433 -3.986)" fill="#37a8a6"/>
    <path id="Path_151" data-name="Path 151" d="M412.231,120.234c-.227-.011-.457-.015-.688-.015s-.46,0-.687.015c-10.264.463-16.157,11.972-10.893,20.8l10.625,17.822a1.112,1.112,0,0,0,1.91,0l10.625-17.822c5.264-8.829-.629-20.339-10.893-20.8m-.688,21.164a8.26,8.26,0,1,1,8.254-8.26,8.257,8.257,0,0,1-8.254,8.26" transform="translate(-16.37 -4.861)" fill="#37a8a6"/>
    <path id="Path_152" data-name="Path 152" d="M259.919,250.506V227.763c-26.627,31.625-67.425,51.859-113.158,51.859C66.535,279.621,1.5,217.361,1.5,140.561S66.535,1.5,146.761,1.5a148.677,148.677,0,0,1,91.566,31.1" transform="translate(-0.062 -0.061)" fill="none" stroke="#37a8a6" stroke-linecap="round" stroke-linejoin="round" stroke-width="3"/>
  </g>
</svg>
