<svg xmlns="http://www.w3.org/2000/svg" width="180" height="33.333" viewBox="0 0 180 33.333">
  <g id="LOGO" transform="translate(-53 -114)">
    <rect id="LOGO_Frame_Background_" data-name="LOGO [Frame Background]" width="179.67" height="32.999" transform="translate(53.159 114.167)" fill="none"/>
    <path id="Vector" d="M10.672,24.967h-.278a.232.232,0,0,1-.238-.235V7.495a1.091,1.091,0,0,0-1.1-1.081H5.992A5.948,5.948,0,0,1,0,.509V.235A.232.232,0,0,1,.238,0H10.68a5.948,5.948,0,0,1,5.992,5.9V19.07a5.948,5.948,0,0,1-5.992,5.9Z" transform="translate(70.45 122.358)" fill="#f08223"/>
    <path id="Vector-2" data-name="Vector" d="M0,10.518v-.274a.232.232,0,0,1,.238-.235H17.88a1.091,1.091,0,0,0,1.1-1.081V5.9A5.948,5.948,0,0,1,24.968,0h.278a.232.232,0,0,1,.238.235V10.526a5.948,5.948,0,0,1-5.992,5.9H5.992A5.96,5.96,0,0,1,0,10.518Z" transform="translate(53 130.903)" fill="#58beb9"/>
    <path id="Vector-3" data-name="Vector" d="M5.992,0H6.27a.232.232,0,0,1,.238.235V17.613a1.091,1.091,0,0,0,1.1,1.081h3.067a5.948,5.948,0,0,1,5.992,5.9v.274a.232.232,0,0,1-.238.235H5.992A5.936,5.936,0,0,1,0,19.211V5.9A5.953,5.953,0,0,1,5.992,0Z" transform="translate(53 114)" fill="#f08223"/>
    <path id="Vector-4" data-name="Vector" d="M25.222,5.9v.274a.232.232,0,0,1-.238.235H7.6a1.091,1.091,0,0,0-1.1,1.081v3.023a5.948,5.948,0,0,1-5.992,5.9H.238A.232.232,0,0,1,0,16.188V5.905A5.948,5.948,0,0,1,5.992,0H19.231a5.948,5.948,0,0,1,5.992,5.9Z" transform="translate(61.821 114)" fill="#58beb9"/>
    <path id="Vector-5" data-name="Vector" d="M7.017.078H8.789l1.963,5,1.987-5H14.51l-2.567,6.25,2.551,5.928L19.509,0h2.05L15.353,14.355H13.724L10.775,7.581,7.811,14.355H6.182L0,0H2.026L7.064,12.256,9.591,6.328,7.025.078Z" transform="translate(99.739 117.548)" fill="#1a7f82"/>
    <path id="Vector-6" data-name="Vector" d="M0,14.363V0H6.182a4.127,4.127,0,0,1,1.8.392A4.668,4.668,0,0,1,9.4,1.441a4.843,4.843,0,0,1,.938,1.48,4.4,4.4,0,0,1,.334,1.668,4.872,4.872,0,0,1-.54,2.232A4.592,4.592,0,0,1,8.606,8.544a4.027,4.027,0,0,1-2.3.658H1.883v5.153H0ZM1.883,7.589H6.206a2.273,2.273,0,0,0,1.351-.407,2.718,2.718,0,0,0,.9-1.089,3.468,3.468,0,0,0,.326-1.5A3.153,3.153,0,0,0,8.407,3.07,2.923,2.923,0,0,0,7.422,2a2.43,2.43,0,0,0-1.335-.384h-4.2V7.589Z" transform="translate(125.284 117.54)" fill="#1a7f82"/>
    <path id="Vector-7" data-name="Vector" d="M6.977,14.559a6.6,6.6,0,0,1-2.845-.6,6.87,6.87,0,0,1-2.2-1.645A7.524,7.524,0,0,1,.5,9.962,7.413,7.413,0,0,1,0,7.283,7.287,7.287,0,0,1,.532,4.542,7.63,7.63,0,0,1,2.018,2.216,7.2,7.2,0,0,1,4.243.6,6.44,6.44,0,0,1,7.025,0,6.516,6.516,0,0,1,9.87.627,6.956,6.956,0,0,1,12.063,2.3a7.747,7.747,0,0,1,1.422,2.349,7.337,7.337,0,0,1-.024,5.388,7.585,7.585,0,0,1-1.47,2.326,7.028,7.028,0,0,1-2.225,1.605,6.551,6.551,0,0,1-2.781.587ZM1.9,7.276A6.169,6.169,0,0,0,2.265,9.39,5.828,5.828,0,0,0,3.3,11.2,4.982,4.982,0,0,0,4.9,12.452a4.619,4.619,0,0,0,2.09.462,4.7,4.7,0,0,0,2.13-.486,4.9,4.9,0,0,0,1.6-1.292,5.9,5.9,0,0,0,1-1.817,6.27,6.27,0,0,0,.342-2.044A6.061,6.061,0,0,0,10.656,3.36,5.045,5.045,0,0,0,9.051,2.107a4.582,4.582,0,0,0-2.058-.454,4.6,4.6,0,0,0-2.13.478,4.778,4.778,0,0,0-1.6,1.284A6.164,6.164,0,0,0,2.249,5.224a6.064,6.064,0,0,0-.358,2.052Z" transform="translate(146.218 117.446)" fill="#1a7f82"/>
    <path id="Vector-8" data-name="Vector" d="M1.883,3.36v11H0V0H1.589l9.067,11.223V.023H12.54v14.34H10.823Z" transform="translate(164.857 117.54)" fill="#1a7f82"/>
    <path id="Vector-9" data-name="Vector" d="M0,14.363V0H1.883V12.742h8.272v1.621Z" transform="translate(183.007 117.54)" fill="#1a7f82"/>
    <path id="Vector-10" data-name="Vector" d="M0,14.363V0H1.883V14.355H0Z" transform="translate(197.225 117.54)" fill="#1a7f82"/>
    <path id="Vector-11" data-name="Vector" d="M1.883,3.36v11H0V0H1.589l9.067,11.223V.023H12.54v14.34H10.823Z" transform="translate(204.742 117.54)" fill="#1a7f82"/>
    <path id="Vector-12" data-name="Vector" d="M10.068,12.742v1.621H0V0H9.885V1.621h-8V6.273H8.836V7.792H1.883V12.75h8.193Z" transform="translate(222.924 117.54)" fill="#1a7f82"/>
    <path id="Vector-13" data-name="Vector" d="M2.971.235a.369.369,0,0,1-.04.188.176.176,0,0,1-.167.086c-.04,0-.119-.016-.215-.016-.064,0-.135-.008-.215-.008s-.143.023-.215.023S1.97.493,1.9.493H1.676c0,.047.016.117.024.2v.2c0,.063-.008.125-.008.2a1.645,1.645,0,0,0,.024.2v.2c0,.063-.016.133-.016.2s.024.133.024.2v.2c0,.063-.016.133-.016.2s.016.133.016.2-.008.133-.008.2.008.133.008.2v.392c0,.086.008.157.008.2v.407c0,.07.008.141.008.2v.2a1.679,1.679,0,0,0,.008.2c0,.094-.016.141-.056.172a.293.293,0,0,1-.183.055.3.3,0,0,1-.191-.039c-.04-.023-.056-.063-.056-.18v-.2c0-.063-.008-.125-.008-.2s-.016-.125-.016-.2.016-.133.016-.2.008-.133.008-.2-.008-.133-.008-.2V2.9c0-.063.016-.133.016-.2v-.2c0-.063-.016-.133-.016-.2v-.2c0-.063.016-.133.016-.2a1.614,1.614,0,0,1-.008-.2V1.331a1.679,1.679,0,0,1,.008-.2c0-.078-.016-.149-.016-.2,0-.063.024-.133.024-.2,0-.11.064-.133,0-.211S1.191.54,1.072.533C1.016.533.945.509.873.5h-.6A.527.527,0,0,1,.047.462C-.025.4.007.313.007.227a.277.277,0,0,1,.056-.2c.024-.023.079,0,.119,0C.237.023.3,0,.388,0,.452,0,.516.008.6.008h.62c.064,0,.135.016.207.016s.135-.016.207-.016.135.031.207.031S1.97.023,2.041.023s.135.008.207.008.143-.023.207-.023.143.023.207.023h.2c.079,0,.135.008.159.047a.245.245,0,0,1,.032.164Z" transform="translate(104.176 140.528)" fill="#28a5a2"/>
    <path id="Vector-14" data-name="Vector" d="M2.878,4.362a.27.27,0,0,1,.048.211c-.008.07-.056.11-.151.117-.048,0-.119.023-.2.023-.056,0-.127-.016-.2-.016h-.2c-.064,0-.127.031-.2.031s-.127-.023-.2-.023H.987c-.072,0-.135-.016-.2-.016a1.754,1.754,0,0,1-.2.008,1.532,1.532,0,0,1-.2-.023c-.079,0-.143.023-.2.016-.072,0-.191-.133-.191-.2V3.877c0-.063.016-.133.016-.2S0,3.54,0,3.469s.024-.133.024-.2S.01,3.133.01,3.062s.008-.133.008-.2A1.757,1.757,0,0,1,0,2.655c0-.07.024-.133.024-.2V1.84c0-.07.008-.133.008-.2S.018,1.5.018,1.433s.016-.133.016-.2.008-.141.008-.2S.025.885.025.822.041.681.041.619V.212c0-.078.016-.133.016-.2h.2C.32.016.391,0,.463,0S.6.016.669.016H.876a1.818,1.818,0,0,1,.207,0c.072,0,.135.023.207.023H1.5c.072,0,.143-.016.207-.016.079,0,.143.016.207.016h.207A1.553,1.553,0,0,0,2.306.031h.381a.765.765,0,0,1,.167.023c.079.023.087.047.1.1s.016.1.016.164a.247.247,0,0,1-.072.188c-.04.031-.111.023-.2.023H2.5c-.056,0-.127-.023-.2-.023H1.9c-.072,0-.135.016-.2.016h-.6C1.035.525.971.509.908.509S.772.525.709.525H.518c0,.039-.024.11-.024.188v.2a1.55,1.55,0,0,1-.008.2c0,.094-.016.164-.016.2s0,.1.008.188V2.06c0,.047.048.063.087.063s.119.023.2.023c.064,0,.127-.023.2-.023h.2c.064,0,.135.016.2.016s.143-.016.2-.016h.2c.072,0,.143.031.207.031a1.965,1.965,0,0,1,.215-.008c.072.008.143.008.215.016a1.3,1.3,0,0,1,.016.227c.008.11,0,.172-.064.2a.825.825,0,0,1-.222.016c-.04,0-.111.016-.207.016H1.3c-.072,0-.143-.008-.207-.008H.884c-.079,0-.143.008-.207.008H.471v.2c0,.055-.016.125-.024.2s.016.133.016.2-.024.133-.024.2v.392a1.14,1.14,0,0,0,.008.164.908.908,0,0,0,.024.164.1.1,0,0,0,.1.11H.78c.064,0,.135-.016.207-.016H1.4c.072,0,.143.016.207.016h.207c.1,0,.175-.016.207-.016h.215c.072,0,.143.016.215.016a1.961,1.961,0,0,1,.215,0c.087,0,.127.07.175.141Z" transform="translate(111.479 140.512)" fill="#28a5a2"/>
    <path id="Vector-15" data-name="Vector" d="M3.385,4.09a.751.751,0,0,1-.1.157.89.89,0,0,1-.151.125.853.853,0,0,1-.167.1.838.838,0,0,1-.167.094c-.056.023-.119.039-.183.063a1.1,1.1,0,0,1-.191.055,1.354,1.354,0,0,1-.191.047c-.064.008-.127.008-.2.016h-.2a.842.842,0,0,1-.2,0A1.693,1.693,0,0,1,1.446,4.7a1.753,1.753,0,0,1-.183-.07,1.178,1.178,0,0,1-.175-.078,1.9,1.9,0,0,1-.175-.094c-.056-.039-.1-.078-.159-.117a1.149,1.149,0,0,1-.127-.149c-.048-.047-.1-.086-.143-.141s-.072-.11-.111-.164-.056-.117-.087-.18a1.2,1.2,0,0,1-.1-.172C.167,3.472.159,3.409.135,3.346a1.628,1.628,0,0,1-.048-.188c-.016-.063-.04-.125-.056-.2s0-.133-.008-.2A1.645,1.645,0,0,0,0,2.571V2.179a1.625,1.625,0,0,1,.016-.2.825.825,0,0,1,.024-.2c.008-.063.032-.125.04-.188l.048-.188a1.778,1.778,0,0,1,.079-.18c.024-.063.04-.125.064-.18s.072-.11.1-.164a1.869,1.869,0,0,1,.1-.164A1.149,1.149,0,0,1,.6.574C.644.527.691.472.731.433S.818.331.866.292a1.9,1.9,0,0,1,.167-.1A1.2,1.2,0,0,1,1.208.1a1.75,1.75,0,0,1,.183-.07A1.585,1.585,0,0,1,1.581.01a1.55,1.55,0,0,1,.191,0A1.619,1.619,0,0,1,1.963,0a1.612,1.612,0,0,1,.191.031.748.748,0,0,1,.191.023,1.243,1.243,0,0,1,.183.055c.064.023.111.07.167.094a1.878,1.878,0,0,1,.175.078,1.15,1.15,0,0,1,.143.125A1.108,1.108,0,0,1,3.147.55c.056.063.111.094.143.133a.713.713,0,0,1,.087.258c.024.117-.024.141-.1.211a.369.369,0,0,1-.2.1c-.064,0-.111-.055-.167-.141C2.885,1.075,2.845,1.02,2.8.958A1.107,1.107,0,0,0,2.662.817c-.048-.039-.1-.07-.159-.11A.826.826,0,0,0,2.336.621,1.145,1.145,0,0,0,2.161.558,1.247,1.247,0,0,0,1.979.5H1.788a.645.645,0,0,0-.207.023.714.714,0,0,0-.183.1,1.085,1.085,0,0,0-.167.117.842.842,0,0,0-.167.125c-.048.047-.079.11-.127.164s-.087.1-.127.164-.056.125-.087.188a.937.937,0,0,0-.064.2,1.428,1.428,0,0,0-.072.2c-.016.063-.048.133-.064.2A1.913,1.913,0,0,0,.5,2.187c0,.07-.008.141-.008.211a1.55,1.55,0,0,0,.008.2,1.442,1.442,0,0,0,.032.2,1.5,1.5,0,0,0,.016.2,1.743,1.743,0,0,0,.064.188,1.745,1.745,0,0,0,.064.188,1.322,1.322,0,0,0,.072.188,1.2,1.2,0,0,0,.111.164c.04.055.072.117.111.164s.1.094.143.133a1.183,1.183,0,0,0,.159.117,1.68,1.68,0,0,0,.183.063,1.831,1.831,0,0,0,.183.078,1.681,1.681,0,0,0,.2,0H2.05a.92.92,0,0,0,.215-.016,1.256,1.256,0,0,0,.207-.078.937.937,0,0,0,.2-.086.663.663,0,0,0,.183-.117,1.349,1.349,0,0,0,.119-.157A.315.315,0,0,1,3.131,3.7c.048-.016.087.031.159.1a.407.407,0,0,1,.111.141.246.246,0,0,1-.032.18Z" transform="translate(118.579 140.502)" fill="#28a5a2"/>
    <path id="Vector-16" data-name="Vector" d="M3.258,1.746c0,.063-.024.133-.024.2s.008.133.008.2-.016.133-.016.2.016.133.016.2.008.133.008.2-.008.133-.008.2-.016.133-.016.2v.6c0,.07.008.133.008.2s-.016.141-.016.2c0,.078.016.141.016.2a.984.984,0,0,1-.008.157.142.142,0,0,1-.072.133A.286.286,0,0,1,3,4.652.2.2,0,0,1,2.861,4.6a.186.186,0,0,1-.048-.149v-.18c0-.063-.024-.117-.024-.18A1.656,1.656,0,0,0,2.813,3.9c0-.055-.024-.117-.024-.188V3.524c0-.063.008-.125.008-.188s-.024-.125-.024-.188V2.96c0-.07.016-.133.016-.188,0-.086-.016-.141-.016-.18h-.2c-.064,0-.127-.016-.207-.016-.064,0-.135.016-.207.016s-.135-.008-.207-.008-.135.008-.207.008h-.62c-.072,0-.143-.008-.207-.008H.715c-.087,0-.159.008-.2.008,0,.047,0,.117-.008.2v.211c0,.063-.016.141-.016.211s.024.141.024.211-.024.141-.024.211v.634c0,.055.008.117.008.18a.278.278,0,0,1-.064.164.213.213,0,0,1-.159.047C.2,4.668.143,4.675.1,4.628a.36.36,0,0,1-.064-.18c0-.055-.016-.117-.016-.2,0-.055.016-.125.016-.2v-.2c0-.063-.016-.133-.016-.2v-.2c0-.063.016-.133.016-.2S.024,3.1.024,3.031V2.42A1.592,1.592,0,0,0,0,2.216c0-.07.024-.141.024-.2v-.2c0-.063-.024-.141-.024-.2s.024-.141.024-.2V.587C.024.509.04.439.04.384S.024.2.024.141A.1.1,0,0,1,.111.031.393.393,0,0,1,.262,0,.393.393,0,0,1,.413.031c.04.016.064.055.064.133v.2a1.625,1.625,0,0,0,.016.2v.2c0,.047.024.11.024.2,0,.055-.024.125-.024.2s.016.125.016.2v.2c0,.07.024.133.024.2s-.016.141-.016.2c0,.086.008.157.008.2.048,0,.111.008.191.008H1.3c.064,0,.135-.023.191-.023h.381c.016,0,.087-.008.183-.008.056,0,.119.016.183.016a1.422,1.422,0,0,0,.183,0c.064,0,.127-.016.183-.016h.191c0-.039-.016-.11-.016-.2V1.7c0-.063.024-.125.024-.2s-.016-.133-.016-.2.016-.133.016-.2v-.2c0-.07-.024-.141-.024-.2A1.874,1.874,0,0,1,2.8.525C2.8.47,2.781.4,2.781.329a.789.789,0,0,1,0-.2c.032-.078.127-.086.207-.1a.266.266,0,0,1,.175.008.162.162,0,0,1,.1.141,2.181,2.181,0,0,1,.016.227V.8c0,.063-.024.133-.024.2s.008.133.008.2v.2c0,.063.024.133.024.2v.2Z" transform="translate(126.511 140.598)" fill="#28a5a2"/>
    <path id="Vector-17" data-name="Vector" d="M3.29.821c0,.063-.024.125-.024.2s.016.133.016.2v.2c0,.063-.016.133-.016.2s.008.133.008.2-.016.133-.016.2v.2a1.613,1.613,0,0,1,.008.2c0,.063-.016.133-.016.2v.2a1.745,1.745,0,0,1-.008.2v.979c0,.07-.016.133-.016.2v.2c0,.078-.016.141-.016.2,0,.086,0,.133-.024.164s-.064.031-.159.031a.315.315,0,0,1-.222-.07.615.615,0,0,1-.167-.18c-.024-.039-.048-.094-.1-.172-.032-.047-.064-.1-.1-.164S2.36,4.056,2.32,4a1.859,1.859,0,0,0-.1-.172c-.032-.055-.064-.11-.1-.172s-.087-.1-.127-.157a1.975,1.975,0,0,0-.1-.172c-.04-.055-.087-.1-.127-.157s-.079-.11-.111-.164-.056-.125-.1-.18-.087-.1-.127-.157a1.86,1.86,0,0,1-.1-.172,1.975,1.975,0,0,1-.1-.172c-.04-.055-.1-.094-.135-.149S1.041,2.051,1,2,.922,1.879.89,1.832a1.459,1.459,0,0,1-.111-.164c-.024-.039-.04-.1-.072-.157S.652,1.4.628,1.362c-.04-.07-.087-.133-.1-.133-.048,0-.032.055-.032.11v.407c0,.063.016.133.016.2s-.016.133-.016.2V3.578c0,.07.008.141.008.2v.2c0,.086.008.157.008.2v.345c0,.157.064.2-.087.2A1.331,1.331,0,0,1,.183,4.7C.1,4.675.016,4.628.016,4.541c0-.063.016-.133.016-.2s-.016-.133-.016-.2.016-.133.016-.2V2.748c0-.063-.016-.133-.016-.2s.008-.133.008-.2V1.933c0-.07-.016-.133-.016-.2v-.2c0-.07-.008-.133-.008-.2s.024-.133.024-.2v-.2c0-.07-.016-.141-.016-.2S.032.571.032.508V.1c0-.125-.016-.1.175-.094A1.09,1.09,0,0,1,.389.015C.437.03.469.07.509.148.54.2.588.258.62.32s.064.117.1.18S.8.6.834.665.9.782.93.837s.072.11.111.172.064.117.1.172.072.117.111.172.079.11.111.164.087.1.127.157.064.117.1.172l.119.164c.04.055.1.1.135.157s.072.11.111.172.064.117.1.172.087.11.119.164.072.117.1.172a1.976,1.976,0,0,1,.1.172c.032.055.079.11.111.164s.064.117.1.172.1.211.167.227v-.2c0-.055.024-.117.032-.2v-.2c0-.063.016-.125.016-.2S2.8,2.662,2.8,2.6s.016-.133.016-.2v-.2c0-.063.016-.133.016-.2s-.016-.133-.016-.2.016-.133.016-.2a1.613,1.613,0,0,1-.008-.2V1.033c0-.07.016-.133.016-.2v-.2c0-.07-.008-.133-.008-.2S2.853.3,2.853.25c0-.086-.008-.157-.008-.2a2.037,2.037,0,0,1,.23-.039C3.187,0,3.234.03,3.266.1A.576.576,0,0,1,3.3.328c0,.055.008.117.008.2v.2Z" transform="translate(134.585 140.427)" fill="#28a5a2"/>
    <path id="Vector-18" data-name="Vector" d="M3.489,2.271c0,.133,0,.266-.008.392a3.113,3.113,0,0,1-.04.392,3.032,3.032,0,0,1-.1.384,2.948,2.948,0,0,1-.143.368,2.887,2.887,0,0,1-.2.337,1.387,1.387,0,0,1-.246.274,1.345,1.345,0,0,1-.3.219,1.4,1.4,0,0,1-.342.133,1.463,1.463,0,0,1-.366.047,1.4,1.4,0,0,1-.358-.047,1.594,1.594,0,0,1-.342-.117,1.905,1.905,0,0,1-.294-.219,1.61,1.61,0,0,1-.238-.274,2.446,2.446,0,0,1-.175-.282A2.735,2.735,0,0,1,.2,3.571,2.145,2.145,0,0,1,.1,3.25C.072,3.1.04,2.96.024,2.827A4.021,4.021,0,0,1,0,2.4a2.862,2.862,0,0,1,.024-.368c.016-.117.032-.243.056-.368a3.466,3.466,0,0,1,.1-.36A2.4,2.4,0,0,1,.294.94a1.462,1.462,0,0,1,.2-.321A1.679,1.679,0,0,1,.755.352a1.622,1.622,0,0,1,.31-.2,1.354,1.354,0,0,1,.358-.11A1.865,1.865,0,0,1,1.788,0a1.713,1.713,0,0,1,.358.047A1.517,1.517,0,0,1,2.5.141,1.313,1.313,0,0,1,2.781.36a1.514,1.514,0,0,1,.23.274,2.419,2.419,0,0,1,.159.321,3.569,3.569,0,0,1,.127.337c.04.125.072.243.111.345a1.579,1.579,0,0,1,.048.313,2.588,2.588,0,0,0,.04.313Zm-3,.2c.016.1.032.211.056.329s.04.219.064.329.048.219.079.321A2.247,2.247,0,0,0,.834,3.8a1.333,1.333,0,0,0,.207.3.926.926,0,0,0,.294.219,1,1,0,0,0,.358.078,1.217,1.217,0,0,0,.35-.047.82.82,0,0,0,.318-.164A1.127,1.127,0,0,0,2.6,3.916a1.589,1.589,0,0,0,.151-.329,3.56,3.56,0,0,0,.135-.376,3.42,3.42,0,0,0,.079-.392,3.357,3.357,0,0,0,.016-.4,2.64,2.64,0,0,0-.032-.352,2.621,2.621,0,0,0-.064-.345,3.222,3.222,0,0,0-.1-.345,2.459,2.459,0,0,0-.151-.36A1.341,1.341,0,0,0,2.408.7,1.1,1.1,0,0,0,2.09.486.84.84,0,0,0,1.716.407a.816.816,0,0,0-.381.1,1.043,1.043,0,0,0-.326.235,1.65,1.65,0,0,0-.246.321,1.666,1.666,0,0,0-.143.376,3.333,3.333,0,0,0-.072.345C.532,1.9.517,2,.509,2.13c-.016.1-.024.219-.04.345Z" transform="translate(142.477 140.481)" fill="#28a5a2"/>
    <path id="Vector-19" data-name="Vector" d="M2.9,4.456c0,.063,0,.172-.056.2a.54.54,0,0,1-.191.016,1.809,1.809,0,0,0-.191.023h-.2c-.056,0-.127-.008-.2-.008s-.127.016-.2.016-.135-.008-.2-.008h-.2c-.064,0-.135.016-.2.016s-.135-.016-.2-.016H.286A1.429,1.429,0,0,0,.1,4.7a.085.085,0,0,1-.079-.078v-.2c0-.07.016-.141.016-.188s-.016-.1-.016-.2c0-.055.008-.125.008-.2V3.258C.024,3.2,0,3.125,0,3.062s.008-.133.008-.2v-.2c0-.063-.008-.133-.008-.2s.016-.133.016-.2.008-.133.008-.2-.016-.133-.016-.2.016-.133.016-.2S.008,1.559.008,1.5V1.3c0-.07.024-.133.024-.2S.016.971.016.909.032.768.032.713C.032.619.016.548.016.517c0-.063.008-.133.008-.2V.11c0-.133.159-.1.223-.11A.579.579,0,0,1,.4.016C.453.031.5.039.5.094S.517.2.517.258.5.368.5.423v.2c0,.063.016.125.016.2v.2c0,.063-.016.133-.016.2s.008.133.008.2v.783c0,.063-.016.133-.016.2s.024.133.024.2-.024.133-.024.2v.2c0,.07-.008.133-.008.2S.5,3.3.5,3.36a1.4,1.4,0,0,1-.016.2v.2a1.592,1.592,0,0,1-.024.2c0,.117-.056.117.008.2s.072,0,.191,0c.056,0,.127-.016.2-.016h.4c.064,0,.135.016.2.016h.2c.072,0,.143-.016.2-.016a1.688,1.688,0,0,1,.2.023,1.459,1.459,0,0,0,.183-.023H2.6a.71.71,0,0,1,.262.031c.056.031.04.164.048.227Z" transform="translate(150.608 140.543)" fill="#28a5a2"/>
    <path id="Vector-20" data-name="Vector" d="M3.489,2.271c0,.133,0,.266-.008.392a3.113,3.113,0,0,1-.04.392,3.032,3.032,0,0,1-.1.384,2.948,2.948,0,0,1-.143.368,2.888,2.888,0,0,1-.2.337,1.387,1.387,0,0,1-.246.274,1.345,1.345,0,0,1-.3.219,1.4,1.4,0,0,1-.342.133,1.463,1.463,0,0,1-.366.047,1.4,1.4,0,0,1-.358-.047,1.594,1.594,0,0,1-.342-.117,1.905,1.905,0,0,1-.294-.219,1.61,1.61,0,0,1-.238-.274,2.446,2.446,0,0,1-.175-.282A2.735,2.735,0,0,1,.2,3.571,2.145,2.145,0,0,1,.1,3.25C.072,3.1.04,2.96.024,2.827A4.021,4.021,0,0,1,0,2.4a2.862,2.862,0,0,1,.024-.368c.016-.117.032-.243.056-.368a3.466,3.466,0,0,1,.1-.36A2.4,2.4,0,0,1,.294.94a1.462,1.462,0,0,1,.2-.321A1.679,1.679,0,0,1,.755.352a1.622,1.622,0,0,1,.31-.2,1.354,1.354,0,0,1,.358-.11A1.865,1.865,0,0,1,1.788,0a1.713,1.713,0,0,1,.358.047A1.517,1.517,0,0,1,2.5.141,1.313,1.313,0,0,1,2.781.36a1.514,1.514,0,0,1,.23.274,2.419,2.419,0,0,1,.159.321,3.569,3.569,0,0,1,.127.337c.04.125.072.243.111.345a1.579,1.579,0,0,1,.048.313,2.588,2.588,0,0,0,.04.313Zm-3,.2c.016.1.032.211.056.329s.04.219.064.329.048.219.079.321A2.247,2.247,0,0,0,.834,3.8a1.333,1.333,0,0,0,.207.3.926.926,0,0,0,.294.219,1,1,0,0,0,.358.078,1.217,1.217,0,0,0,.35-.047.82.82,0,0,0,.318-.164A1.127,1.127,0,0,0,2.6,3.916a1.589,1.589,0,0,0,.151-.329,3.56,3.56,0,0,0,.135-.376,3.42,3.42,0,0,0,.079-.392,3.357,3.357,0,0,0,.016-.4,2.64,2.64,0,0,0-.032-.352,2.621,2.621,0,0,0-.064-.345,3.222,3.222,0,0,0-.1-.345,2.459,2.459,0,0,0-.151-.36A1.341,1.341,0,0,0,2.408.7,1.1,1.1,0,0,0,2.09.486.84.84,0,0,0,1.716.407a.816.816,0,0,0-.381.1,1.043,1.043,0,0,0-.326.235,1.65,1.65,0,0,0-.246.321,1.666,1.666,0,0,0-.143.376,3.333,3.333,0,0,0-.072.345C.532,1.9.517,2,.509,2.13c-.016.1-.024.219-.04.345Z" transform="translate(157.357 140.481)" fill="#28a5a2"/>
    <path id="Vector-21" data-name="Vector" d="M3.862,2.937a.978.978,0,0,1-.032.2c-.008.063-.04.125-.056.2s-.032.133-.048.2-.056.125-.079.188a1,1,0,0,1-.087.188,1.285,1.285,0,0,1-.111.172c-.04.055-.056.125-.1.18s-.1.086-.151.133a1.209,1.209,0,0,1-.135.149c-.056.039-.111.07-.167.11s-.119.055-.183.086a1.33,1.33,0,0,1-.183.094.817.817,0,0,1-.2.047c-.064.016-.135,0-.2.016-.064,0-.135.031-.2.031a1.685,1.685,0,0,1-.2-.008.817.817,0,0,1-.2-.047,1.744,1.744,0,0,1-.2-.031c-.064-.023-.127-.055-.183-.078a1.3,1.3,0,0,1-.183-.086C.914,4.644.858,4.6.8,4.558a1.278,1.278,0,0,1-.151-.141C.6,4.37.556,4.323.509,4.268S.437,4.159.4,4.1s-.064-.117-.1-.18a1.973,1.973,0,0,1-.1-.18c-.024-.063-.04-.125-.064-.2a1.87,1.87,0,0,1-.064-.2,1.592,1.592,0,0,1-.024-.2c-.008-.063-.04-.133-.048-.2a1.813,1.813,0,0,0,.008-.2c0-.07-.016-.133-.016-.2V2.13a1.745,1.745,0,0,1,.008-.2,1.415,1.415,0,0,1,.048-.2c.016-.07.04-.133.056-.2a1.755,1.755,0,0,1,.048-.2c.024-.063.04-.125.064-.188A1.24,1.24,0,0,1,.3.971C.334.908.381.861.413.807S.485.7.532.642A1.213,1.213,0,0,1,.811.352,1.9,1.9,0,0,1,.985.258c.056-.031.111-.07.175-.1a1.75,1.75,0,0,1,.183-.07c.064-.016.127-.023.191-.039s.127-.008.2-.016S1.859,0,1.931,0a1.382,1.382,0,0,1,.191.031,1.585,1.585,0,0,1,.191.023,1.548,1.548,0,0,0,.191,0c.064.016.119.055.175.07A1.159,1.159,0,0,1,2.853.2c.064.031.111.063.167.094s.111.07.159.11.1.086.135.133a1.9,1.9,0,0,1,.111.157c.04.055.087.1.119.149A.175.175,0,0,1,3.56,1a.275.275,0,0,1-.079.149.317.317,0,0,1-.167.078.258.258,0,0,1-.159-.07c-.016-.016-.056-.086-.127-.172A1.336,1.336,0,0,0,2.877.838,1.425,1.425,0,0,0,2.718.7,1.4,1.4,0,0,0,2.527.611,1.431,1.431,0,0,0,2.336.517,1.661,1.661,0,0,0,2.13.493C2.066.493,1.995.47,1.923.47a1.5,1.5,0,0,0-.2.031.818.818,0,0,0-.2.016,1.877,1.877,0,0,0-.191.07,1.537,1.537,0,0,0-.167.1c-.056.039-.1.078-.159.125S.914.9.866.955s-.064.117-.1.172a1.243,1.243,0,0,0-.1.172,1.778,1.778,0,0,0-.079.18.839.839,0,0,0-.032.2,1.413,1.413,0,0,0-.056.2c-.008.063-.016.133-.024.2a1.9,1.9,0,0,1-.016.2c0,.07-.016.133-.016.2a.848.848,0,0,0,.016.2,1.584,1.584,0,0,0,.04.188,1.645,1.645,0,0,0,.024.2A1.745,1.745,0,0,0,.58,3.25c.024.063.056.117.079.18a1.744,1.744,0,0,0,.064.188c.032.055.064.117.1.172s.087.094.127.149a1.169,1.169,0,0,0,.119.157c.048.047.1.094.143.133a.683.683,0,0,0,.159.1,1.2,1.2,0,0,0,.175.086.826.826,0,0,0,.191.039,1.585,1.585,0,0,0,.191.023.753.753,0,0,0,.191-.016A1.248,1.248,0,0,0,2.3,4.4a1.178,1.178,0,0,0,.175-.078c.056-.031.119-.063.167-.094s.1-.094.135-.133a1.076,1.076,0,0,0,.135-.133,1.87,1.87,0,0,0,.1-.164,1.2,1.2,0,0,0,.1-.172,1.745,1.745,0,0,0,.064-.188c.024-.063.048-.125.064-.18.024-.07.032-.133.048-.188.016-.07.032-.141.04-.188-.048,0-.119.016-.207.016h-.4c-.072,0-.135-.023-.2-.023s-.143.008-.2.008c-.087,0-.159-.008-.2-.008a.511.511,0,0,1-.246-.023.254.254,0,0,1-.064-.227c0-.07.04-.188.1-.188s.119-.016.191-.016c.056,0,.119.008.191.008s.127-.016.191-.016.127-.016.191-.016.127.008.191.008.127.016.191.016h.572a.206.206,0,0,1,.191.11.527.527,0,0,1,.032.227,1.739,1.739,0,0,1,0,.2Z" transform="translate(165.32 140.426)" fill="#28a5a2"/>
    <path id="Vector-22" data-name="Vector" d="M3.682.188s-.056.078-.111.164c-.032.047-.056.117-.1.172S3.4.634,3.364.689L3.245.854c-.04.055-.087.1-.127.157s-.064.117-.1.172L2.9,1.347c-.04.055-.079.11-.111.164s-.087.1-.127.157-.087.11-.119.157c-.064.086-.1.141-.119.157-.048.063-.087.133-.135.2s-.087.133-.127.2a.469.469,0,0,0-.072.211v.2a1.883,1.883,0,0,0,.008.2v.2c0,.07.016.133.016.2v.2c0,.07.016.141.016.2V4.2c0,.086-.016.141-.016.188v.188c0,.078-.04.117-.119.133a.878.878,0,0,1-.207.023.394.394,0,0,1-.175-.023.119.119,0,0,1-.087-.133,1.55,1.55,0,0,1-.008-.2v-.2c0-.063.024-.133.024-.2a1.5,1.5,0,0,1,.016-.2V3.579c0-.063.016-.133.016-.211V3.156a1.881,1.881,0,0,0-.008-.211c0-.078.008-.149.008-.211V2.522a.346.346,0,0,0-.048-.157c-.024-.055-.079-.086-.1-.125s-.056-.094-.1-.172c-.032-.047-.072-.1-.111-.164s-.072-.11-.111-.164-.072-.11-.111-.164S.917,1.457.877,1.4s-.072-.11-.111-.164S.7,1.12.663,1.065.575.955.543.908C.5.846.472.791.44.736A1.919,1.919,0,0,0,.329.572C.305.54.257.493.21.439.178.392.13.345.1.29A.834.834,0,0,1,.011.133C-.021.047.019.008.091,0,.138,0,.21.016.273.016.361.016.424,0,.48.008a.215.215,0,0,1,.167.11A.71.71,0,0,1,.734.305a1.034,1.034,0,0,0,.1.157c.04.047.087.086.127.125a1.579,1.579,0,0,0,.1.172c.032.047.064.1.1.164s.087.094.119.149.056.117.087.172.079.11.111.164.056.125.087.172c.04.063.072.117.1.164.048.078.1.141.1.157a.1.1,0,0,0,.175,0c.024-.031.072-.086.119-.157a1.5,1.5,0,0,0,.111-.164,1.859,1.859,0,0,1,.1-.172c.032-.055.072-.11.111-.164s.079-.1.119-.164S2.57.963,2.6.908s.064-.117.1-.172.064-.117.1-.172.1-.11.127-.157A1.14,1.14,0,0,1,3.039.243c.048-.063.072-.117.1-.149A.17.17,0,0,1,3.293.031c.04,0,.1-.016.175-.016a.64.64,0,0,1,.207.023c.087.016.087.047.016.149Z" transform="translate(173.058 140.512)" fill="#28a5a2"/>
    <path id="Vector-23" data-name="Vector" d="M2.9,4.456c0,.063,0,.172-.056.2a.54.54,0,0,1-.191.016,1.809,1.809,0,0,0-.191.023h-.2c-.056,0-.127-.008-.2-.008s-.127.016-.2.016-.135-.008-.2-.008h-.2c-.064,0-.135.016-.2.016s-.135-.016-.2-.016H.286A1.429,1.429,0,0,0,.1,4.7a.085.085,0,0,1-.079-.078v-.2c0-.07.016-.141.016-.188s-.016-.1-.016-.2c0-.055.008-.125.008-.2V3.258C.024,3.2,0,3.125,0,3.062s.008-.133.008-.2v-.2c0-.063-.008-.133-.008-.2s.016-.133.016-.2.008-.133.008-.2-.016-.133-.016-.2.016-.133.016-.2S.008,1.559.008,1.5V1.3c0-.07.024-.133.024-.2S.016.971.016.909.032.768.032.713C.032.619.016.548.016.517c0-.063.008-.133.008-.2V.11c0-.133.159-.1.222-.11A.579.579,0,0,1,.4.016C.453.031.5.039.5.094S.517.2.517.258.5.368.5.423v.2c0,.063.016.125.016.2v.2c0,.063-.016.133-.016.2s.008.133.008.2v.783c0,.063-.016.133-.016.2s.024.133.024.2-.024.133-.024.2v.2c0,.07-.008.133-.008.2S.5,3.3.5,3.36a1.4,1.4,0,0,1-.016.2v.2a1.592,1.592,0,0,1-.024.2c0,.117-.056.117.008.2s.072,0,.191,0c.056,0,.127-.016.2-.016h.4c.064,0,.135.016.2.016h.2c.072,0,.143-.016.2-.016a1.688,1.688,0,0,1,.2.023,1.459,1.459,0,0,0,.183-.023H2.6a.71.71,0,0,1,.262.031c.056.031.04.164.048.227Z" transform="translate(187.149 140.543)" fill="#28a5a2"/>
    <path id="Vector-24" data-name="Vector" d="M.556,2.368c0,.047-.016.117-.016.2V3.934c0,.07-.016.141-.016.2,0,.078.008.149.008.2s-.016.1-.016.157v.157c0,.063-.048.078-.127.086a1.323,1.323,0,0,1-.183.016c-.048,0-.207,0-.207-.125s.024-.188.024-.251v-.2c0-.063-.008-.125-.008-.2,0-.063.016-.133.016-.2s.008-.133.008-.2-.016-.133-.016-.2.008-.133.008-.2-.016-.133-.016-.2v-.2c0-.063.024-.133.024-.2s-.016-.133-.016-.2.016-.133.016-.2v-.2c0-.07-.024-.133-.024-.2S.04,1.6.04,1.53v-.2c0-.07-.008-.133-.008-.2S.048.989.048.919V.512C.048.433.04.371.04.316A.48.48,0,0,1,.071.073C.1,0,.183-.005.294,0S.453.026.493.1a.482.482,0,0,1,.04.227v.2c0,.063.024.125.024.2v.2c0,.063-.024.133-.024.2s.008.133.008.2-.016.133-.016.2.008.133.008.2.008.141.008.2-.008.141-.008.2c0,.086.008.149.008.2Z" transform="translate(194.379 140.502)" fill="#28a5a2"/>
    <path id="Vector-25" data-name="Vector" d="M4.259,4.493c0,.133-.04.149-.191.164A.981.981,0,0,1,3.9,4.65c-.056-.008-.079-.031-.087-.117V4.321c0-.07-.008-.141-.008-.211V3.9c0-.031-.024-.094-.032-.2a1.4,1.4,0,0,0,.016-.2c0-.063-.024-.125-.032-.2v-.2a1.609,1.609,0,0,0,0-.2c0-.063-.024-.133-.024-.2v-.2a1.613,1.613,0,0,0,.008-.2c0-.07-.024-.133-.024-.2v-.2c0-.07.016-.133.016-.2s-.024-.141-.024-.2v-.2c0-.047.016-.117-.04-.031l-.079.188L3.512,1.7a1.418,1.418,0,0,0-.064.2,1.9,1.9,0,0,0-.079.188,1.816,1.816,0,0,0-.072.188c-.04.094-.024.1-.064.2l-.079.188c-.04.094-.032.094-.072.188s-.048.086-.087.18-.016.1-.056.2-.064.086-.1.18-.032.094-.072.2a1.816,1.816,0,0,0-.072.188,1.872,1.872,0,0,0-.064.2c-.04.094-.024.1-.064.2a1.365,1.365,0,0,0-.087.188.825.825,0,0,1-.072.2,1.673,1.673,0,0,1-.119.117c-.048.047-.087.094-.135.094s-.1-.047-.143-.086a.41.41,0,0,1-.111-.125c-.04-.094-.032-.094-.072-.188s-.048-.094-.087-.18L1.669,4c-.04-.094-.032-.094-.072-.188s-.04-.094-.079-.18-.056-.086-.1-.18-.032-.1-.072-.2-.032-.094-.072-.188L1.2,2.88a1.972,1.972,0,0,0-.1-.18l-.079-.188c-.04-.094-.048-.086-.087-.18s-.016-.1-.056-.2L.8,1.948c-.04-.094-.056-.086-.1-.18s-.024-.1-.064-.2L.564,1.384a.694.694,0,0,0-.04.2v.587a1.61,1.61,0,0,1,0,.2,1.625,1.625,0,0,1-.016.2c0,.063.016.133.016.2s-.016.133-.016.2v.2c0,.07-.016.133-.016.2s-.008.133-.008.2v.2a1.747,1.747,0,0,1,.008.2c0,.07-.024.141-.024.2v.2c0,.047.016.1.016.164a.326.326,0,0,1-.032.157C.421,4.7.31,4.673.246,4.673s-.191.039-.23-.023A.433.433,0,0,1,0,4.486c0-.063.008-.125.008-.157V3.922c0-.063.016-.133.016-.2S0,3.585,0,3.514s.024-.133.024-.2v-.2c0-.07.016-.133.016-.2a1.745,1.745,0,0,1-.008-.2c0-.07.016-.133.016-.2v-.2a1.592,1.592,0,0,1,.024-.2c0-.07-.016-.141-.016-.2s.016-.141.016-.2-.008-.141-.008-.2V1.071c0-.07.016-.141.016-.2v-.2C.079.585.072.515.072.46.072.382.1.311.1.256a.669.669,0,0,1,.016-.2Q.159-.018.3.006A.233.233,0,0,1,.477.053.338.338,0,0,1,.58.2C.6.256.636.319.66.374s.048.11.079.188C.763.617.771.687.8.758c.024.055.064.11.1.18l.072.188c.024.063.04.125.064.188s.064.117.087.18.04.125.064.188.056.125.079.188a1.973,1.973,0,0,0,.1.18c.024.063.04.133.064.2s.056.125.079.188l.072.188c.024.063.056.125.079.188A1.9,1.9,0,0,0,1.732,3a1.265,1.265,0,0,0,.087.18l.072.188c.024.063.056.125.079.188s.04.133.064.2.064.133.079.18c.04-.063.079-.11.1-.157A.993.993,0,0,0,2.289,3.6c.016-.047.048-.1.079-.18.024-.055.04-.117.072-.18s.024-.125.056-.188.056-.117.079-.18a1.778,1.778,0,0,1,.079-.18c.024-.063.04-.125.064-.188s.064-.11.087-.172.056-.117.079-.18.032-.125.056-.188.064-.117.087-.18.032-.133.056-.188.048-.125.072-.18.072-.117.1-.172.032-.133.056-.188.064-.117.087-.18S3.449.75,3.473.7C3.5.625,3.5.554,3.52.5c.032-.078.072-.133.087-.172A.968.968,0,0,1,3.687.115a.189.189,0,0,1,.2-.086.5.5,0,0,1,.167.016c.064.016.079.047.079.125v.2c0,.063.016.125.016.2a1.813,1.813,0,0,0,.008.2v.2a1.63,1.63,0,0,0-.016.2c0,.063.016.133.016.2v.2c0,.063.024.133.024.2v.2c0,.063-.016.133-.016.2s.016.133.016.2a1.741,1.741,0,0,0,0,.2c0,.07.016.133.016.2s.016.133.016.2v.2a1.745,1.745,0,0,0-.008.2V3.8c0,.07.008.133.008.2s.016.141.016.2a1.739,1.739,0,0,0,0,.2c0,.078.016.141.016.2Z" transform="translate(199.673 140.577)" fill="#28a5a2"/>
    <path id="Vector-26" data-name="Vector" d="M.556,2.368c0,.047-.016.117-.016.2V3.934c0,.07-.016.141-.016.2,0,.078.008.149.008.2s-.016.1-.016.157v.157c0,.063-.048.078-.127.086a1.323,1.323,0,0,1-.183.016c-.048,0-.207,0-.207-.125s.024-.188.024-.251v-.2c0-.063-.008-.125-.008-.2,0-.063.016-.133.016-.2s.008-.133.008-.2-.016-.133-.016-.2.008-.133.008-.2-.016-.133-.016-.2v-.2c0-.063.024-.133.024-.2s-.016-.133-.016-.2.016-.133.016-.2v-.2c0-.07-.024-.133-.024-.2S.04,1.6.04,1.53v-.2c0-.07-.008-.133-.008-.2S.048.989.048.919V.512C.048.433.04.371.04.316A.48.48,0,0,1,.072.073C.1,0,.183-.005.294,0S.453.026.493.1a.482.482,0,0,1,.04.227v.2c0,.063.024.125.024.2v.2c0,.063-.024.133-.024.2s.008.133.008.2-.016.133-.016.2.008.133.008.2.008.141.008.2-.008.141-.008.2c0,.086.008.149.008.2Z" transform="translate(208.652 140.502)" fill="#28a5a2"/>
    <path id="Vector-27" data-name="Vector" d="M2.971.235a.369.369,0,0,1-.04.188.176.176,0,0,1-.167.086c-.04,0-.119-.016-.215-.016-.064,0-.135-.008-.215-.008s-.143.023-.215.023S1.97.493,1.9.493H1.676c0,.047.016.117.024.2v.2c0,.063-.008.125-.008.2a1.645,1.645,0,0,0,.024.2v.2c0,.063-.016.133-.016.2s.024.133.024.2v.2c0,.063-.016.133-.016.2s.016.133.016.2-.008.133-.008.2.008.133.008.2v.392c0,.086.008.157.008.2v.407c0,.07.008.141.008.2v.2a1.679,1.679,0,0,0,.008.2c0,.094-.016.141-.056.172a.293.293,0,0,1-.183.055.3.3,0,0,1-.191-.039c-.04-.023-.056-.063-.056-.18v-.2c0-.063-.008-.125-.008-.2s-.016-.125-.016-.2.016-.133.016-.2.008-.133.008-.2-.008-.133-.008-.2V2.9c0-.063.016-.133.016-.2v-.2c0-.063-.016-.133-.016-.2v-.2c0-.063.016-.133.016-.2a1.613,1.613,0,0,1-.008-.2V1.331c0-.07.008-.141.008-.2,0-.078-.016-.149-.016-.2,0-.063.024-.133.024-.2,0-.11.064-.133,0-.211S1.191.54,1.072.533C1.016.533.945.509.873.5h-.6A.527.527,0,0,1,.047.462C-.025.4.007.313.007.227a.277.277,0,0,1,.056-.2c.024-.023.079,0,.119,0C.237.023.3,0,.388,0,.452,0,.516.008.6.008h.62c.064,0,.135.016.207.016s.135-.016.207-.016.135.031.207.031S1.97.023,2.041.023s.135.008.207.008.143-.023.207-.023.143.023.207.023h.2c.079,0,.135.008.159.047a.3.3,0,0,1,.04.164Z" transform="translate(213.651 140.528)" fill="#28a5a2"/>
    <path id="Vector-28" data-name="Vector" d="M2.878,4.362a.27.27,0,0,1,.048.211c-.008.07-.056.11-.151.117-.048,0-.119.023-.2.023-.056,0-.127-.016-.2-.016h-.2c-.064,0-.127.031-.2.031s-.127-.023-.2-.023H.987c-.072,0-.135-.016-.2-.016a1.754,1.754,0,0,1-.2.008,1.532,1.532,0,0,1-.2-.023c-.079,0-.143.023-.2.016-.072,0-.191-.133-.191-.2V3.877c0-.063.016-.133.016-.2S0,3.54,0,3.469s.024-.133.024-.2S.01,3.133.01,3.062s.008-.133.008-.2A1.757,1.757,0,0,1,0,2.655c0-.07.024-.133.024-.2V1.84c0-.07.008-.133.008-.2S.018,1.5.018,1.433s.016-.133.016-.2.008-.141.008-.2S.025.885.025.822.041.681.041.619V.212c0-.078.016-.133.016-.2h.2C.32.016.391,0,.463,0S.6.016.669.016H.876a1.818,1.818,0,0,1,.207,0c.072,0,.135.023.207.023H1.5c.072,0,.143-.016.207-.016.079,0,.143.016.207.016h.207A1.553,1.553,0,0,0,2.306.031h.381a.765.765,0,0,1,.167.023c.079.023.087.047.1.1s.016.1.016.164a.247.247,0,0,1-.072.188c-.04.031-.111.023-.2.023H2.5c-.056,0-.127-.023-.2-.023H1.9c-.072,0-.135.016-.2.016h-.6C1.035.525.971.509.908.509S.772.525.709.525H.518c0,.039-.024.11-.024.188v.2a1.55,1.55,0,0,1-.008.2c0,.094-.016.164-.016.2s0,.1.008.188V2.06c0,.047.048.063.087.063s.119.023.2.023c.064,0,.127-.023.2-.023h.2c.064,0,.135.016.2.016s.143-.016.2-.016h.2c.072,0,.143.031.207.031a1.964,1.964,0,0,1,.215-.008c.072.008.143.008.215.016a1.3,1.3,0,0,1,.016.227c.008.11,0,.172-.064.2a.825.825,0,0,1-.222.016c-.04,0-.111.016-.207.016H1.3c-.072,0-.143-.008-.207-.008H.884c-.079,0-.143.008-.207.008H.471v.2c0,.055-.016.125-.024.2s.016.133.016.2-.024.133-.024.2v.392a1.14,1.14,0,0,0,.008.164.908.908,0,0,0,.024.164.1.1,0,0,0,.1.11H.78c.064,0,.135-.016.207-.016H1.4c.072,0,.143.016.207.016h.207c.1,0,.175-.016.207-.016h.215c.072,0,.143.016.215.016a1.961,1.961,0,0,1,.215,0c.087,0,.127.07.175.141Z" transform="translate(220.975 140.512)" fill="#28a5a2"/>
    <path id="Vector-29" data-name="Vector" d="M3.361,2.287v.2a1.673,1.673,0,0,1-.032.2.815.815,0,0,1-.016.2c-.016.063-.024.133-.04.2a1.745,1.745,0,0,1-.064.188c-.024.063-.056.117-.079.18a1.22,1.22,0,0,1-.072.18c-.032.055-.087.1-.119.157s-.079.1-.119.157A1.2,1.2,0,0,1,2.71,4.1c-.048.047-.111.07-.159.117a1.1,1.1,0,0,1-.151.117,1.9,1.9,0,0,1-.167.1l-.167.094a1.75,1.75,0,0,1-.183.07.88.88,0,0,1-.191.031A.964.964,0,0,1,1.5,4.66c-.064,0-.135-.016-.207-.016s-.135.023-.207.023S.946,4.66.882,4.66h-.6a.239.239,0,0,1-.167-.078.3.3,0,0,1-.087-.164c0-.055.016-.117.016-.188,0-.039-.016-.11-.016-.2v-.2c0-.063-.024-.133-.024-.2s.024-.133.024-.2v-.2c0-.07-.008-.133-.008-.2V2.6C.016,2.53,0,2.467,0,2.4s.016-.141.016-.2.008-.141.008-.2S0,1.848,0,1.786s.016-.141.016-.2V1.175c0-.07.016-.141.016-.2v-.2C.032.689.016.619.016.564.016.47.032.4.032.36a1.349,1.349,0,0,1,0-.18A.165.165,0,0,1,.143.055.65.65,0,0,1,.31.016H.691C.755.016.818.008.882.008h.381C1.327.008,1.391,0,1.454,0a1.553,1.553,0,0,1,.191.008.92.92,0,0,1,.2.016,1.083,1.083,0,0,1,.191.063.914.914,0,0,1,.2.047c.056.023.111.078.167.11a1.907,1.907,0,0,1,.167.1,1.216,1.216,0,0,1,.151.133c.048.047.1.086.143.141s.087.1.127.157.056.117.087.18a1.322,1.322,0,0,1,.072.188,1.321,1.321,0,0,1,.072.188,1.415,1.415,0,0,1,.048.2,1.71,1.71,0,0,1,.04.2c.008.063,0,.133.008.2a1.9,1.9,0,0,0,.016.2c0,.063.016.133.016.2Zm-.54.219V2.295c0-.07-.016-.133-.016-.2V1.9a.783.783,0,0,0-.016-.2,1.061,1.061,0,0,0-.056-.188,1.745,1.745,0,0,0-.064-.188c-.024-.063-.056-.125-.079-.18A1.266,1.266,0,0,0,2.5.971c-.04-.055-.079-.11-.119-.157s-.1-.086-.151-.125A1.926,1.926,0,0,0,2.074.58a1.906,1.906,0,0,0-.167-.1A1.693,1.693,0,0,0,1.716.431,1.612,1.612,0,0,0,1.526.4C1.454.4,1.391.384,1.335.384S1.208.376,1.12.376C1.049.376.977.392.906.392a.976.976,0,0,0-.215,0C.588.407.509.454.517.517c0,.047.032.117.032.2a1.5,1.5,0,0,0-.016.2v.783c0,.063-.016.133-.016.2s.016.133.016.2-.016.133-.016.2.024.133.024.2-.008.133-.008.2v.6c0,.07-.008.133-.008.2s.016.133.016.2-.024.141-.024.2c0,.078.008.157.008.2H.731c.064,0,.127.016.2.016s.135-.008.2-.008h.2a.955.955,0,0,0,.207-.016A1.824,1.824,0,0,0,1.732,4a1.878,1.878,0,0,0,.2-.055,2.048,2.048,0,0,0,.191-.086,1.16,1.16,0,0,0,.167-.125,1.243,1.243,0,0,0,.151-.141,1.64,1.64,0,0,0,.119-.172c.032-.055.079-.11.111-.172a1.532,1.532,0,0,0,.048-.2c.016-.063.056-.125.072-.2a1.592,1.592,0,0,0,.024-.2c0-.063.016-.133.016-.211Z" transform="translate(228.431 140.575)" fill="#28a5a2"/>
  </g>
</svg>
